<svg width="195" height="188" viewBox="0 0 195 188" fill="none" xmlns="http://www.w3.org/2000/svg">
<path d="M46.1028 5.11591C39.1347 9.89237 39.5014 10.2335 49.0367 28.9982L59.3055 48.104H95.2461H131.187L141.456 28.9982C151.724 8.86884 151.358 6.13944 137.421 2.38651C130.453 0.339458 128.253 2.04534 123.118 13.6453L117.251 27.6335H95.2461H73.6084L67.3738 13.9865C60.7724 -0.684067 57.105 -2.38994 46.1028 5.11591Z" fill="white"/>
<path d="M2.82746 41.6227C-2.30692 48.4462 -1.57343 50.152 14.5632 67.2108L31.8 85.6343H94.1461H156.859L175.929 67.552L195 49.4697L186.565 41.6227L177.763 34.1168L163.093 49.4697L148.057 65.1638H94.8795H41.3353L27.3991 49.8109C20.0643 41.2815 12.3627 34.458 10.8958 34.458C9.42881 34.458 5.76139 37.8697 2.82746 41.6227Z" fill="white"/>
<path d="M14.1964 120.434C-1.20672 137.152 -1.94021 138.858 3.19417 144.316C11.2625 152.846 13.4629 152.163 28.4993 136.811L41.702 123.163H95.9798H150.257L163.827 138.858L177.396 154.21L186.198 146.705L195 139.199L177.396 121.116L160.16 103.375L95.2463 103.034L30.6998 102.693L14.1964 120.434Z" fill="white"/>
<path d="M49.0367 159.328C39.5014 178.093 39.1347 178.434 46.1028 183.21C57.105 190.716 60.7724 189.01 67.3738 173.998L73.6084 160.351L96.3463 161.375C118.351 162.399 119.451 162.74 123.118 173.316C125.319 179.116 128.253 185.257 129.72 186.281C131.554 187.987 144.756 183.551 150.257 179.457C150.991 178.775 146.957 169.904 141.089 159.328L131.187 140.222H95.2461H59.3055L49.0367 159.328Z" fill="white"/>
</svg>
