<svg width="27" height="27" viewBox="0 0 27 27" fill="none" xmlns="http://www.w3.org/2000/svg">
<path fill-rule="evenodd" clip-rule="evenodd" d="M10.4167 2.125C9.66254 2.125 8.93922 2.42461 8.40591 2.95792C7.87261 3.49122 7.573 4.21454 7.573 4.96875V7H5.54175C4.67979 7 3.85314 7.34241 3.24365 7.9519C2.63416 8.5614 2.29175 9.38805 2.29175 10.25V21.625C2.29175 22.487 2.63416 23.3136 3.24365 23.9231C3.85314 24.5326 4.67979 24.875 5.54175 24.875H21.7917C22.6537 24.875 23.4804 24.5326 24.0898 23.9231C24.6993 23.3136 25.0417 22.487 25.0417 21.625V10.25C25.0417 9.38805 24.6993 8.5614 24.0898 7.9519C23.4804 7.34241 22.6537 7 21.7917 7H19.7605V4.96875C19.7605 4.21454 19.4609 3.49122 18.9276 2.95792C18.3943 2.42461 17.671 2.125 16.9167 2.125H10.4167ZM17.323 7V4.96875C17.323 4.86101 17.2802 4.75767 17.204 4.68149C17.1278 4.6053 17.0245 4.5625 16.9167 4.5625H10.4167C10.309 4.5625 10.2057 4.6053 10.1295 4.68149C10.0533 4.75767 10.0105 4.86101 10.0105 4.96875V7H17.323ZM5.54175 9.4375H21.7917C22.0072 9.4375 22.2139 9.5231 22.3663 9.67548C22.5186 9.82785 22.6042 10.0345 22.6042 10.25V11.875H4.72925V10.25C4.72925 10.0345 4.81485 9.82785 4.96722 9.67548C5.1196 9.5231 5.32626 9.4375 5.54175 9.4375ZM4.72925 14.3125V21.625C4.72925 21.8405 4.81485 22.0472 4.96722 22.1995C5.1196 22.3519 5.32626 22.4375 5.54175 22.4375H21.7917C22.0072 22.4375 22.2139 22.3519 22.3663 22.1995C22.5186 22.0472 22.6042 21.8405 22.6042 21.625V14.3125H15.2917V16.75H12.0417V14.3125H4.72925Z" fill="black"/>
</svg>
