<svg width="25" height="24" viewBox="0 0 25 24" fill="none" xmlns="http://www.w3.org/2000/svg">
<g clip-path="url(#clip0_4_212)">
<path fill-rule="evenodd" clip-rule="evenodd" d="M11.3135 0.0434634C13.3846 -0.13328 15.466 0.230973 17.354 1.10054C19.242 1.97011 20.8717 3.31517 22.0835 5.00396V2.62496C22.0835 2.32659 22.202 2.04045 22.413 1.82947C22.624 1.61849 22.9101 1.49996 23.2085 1.49996C23.5069 1.49996 23.793 1.61849 24.004 1.82947C24.215 2.04045 24.3335 2.32659 24.3335 2.62496V8.99996H17.9585C17.6601 8.99996 17.374 8.88144 17.163 8.67046C16.952 8.45948 16.8335 8.17333 16.8335 7.87496C16.8335 7.57659 16.952 7.29045 17.163 7.07947C17.374 6.86849 17.6601 6.74996 17.9585 6.74996H20.549C19.5232 5.14482 18.0496 3.87534 16.3103 3.09835C14.5711 2.32135 12.6423 2.07087 10.7622 2.37786C8.88218 2.68484 7.13324 3.53584 5.73146 4.82573C4.32968 6.11562 3.33646 7.78789 2.8745 9.63596C2.84042 9.78114 2.77782 9.91809 2.69035 10.0389C2.60287 10.1596 2.49225 10.2618 2.36494 10.3394C2.23762 10.417 2.09614 10.4686 1.94872 10.4911C1.80131 10.5135 1.65089 10.5064 1.50623 10.4703C1.36157 10.4341 1.22555 10.3695 1.10608 10.2802C0.986602 10.191 0.886059 10.0789 0.810293 9.95049C0.734528 9.82205 0.685053 9.67983 0.664744 9.5321C0.644436 9.38437 0.653699 9.23408 0.691996 9.08996C1.29881 6.6636 2.6486 4.48748 4.55268 2.86578C6.45677 1.24408 8.81998 0.257859 11.312 0.0449634L11.3135 0.0434634ZM6.2135 22.3215C7.82148 23.2745 9.62987 23.8388 11.4945 23.9692C13.3592 24.0997 15.2285 23.7928 16.9535 23.0729C18.6786 22.353 20.2116 21.2401 21.4303 19.8229C22.6491 18.4057 23.52 16.7233 23.9735 14.91C24.041 14.6223 23.9926 14.3195 23.8388 14.0672C23.6849 13.8149 23.438 13.6332 23.1513 13.5615C22.8646 13.4898 22.5612 13.5338 22.3067 13.6839C22.0521 13.8341 21.8669 14.0784 21.791 14.364C21.3288 16.2116 20.3355 17.8835 18.9339 19.1731C17.5322 20.4626 15.7835 21.3134 13.9038 21.6204C12.0241 21.9273 10.0956 21.677 8.35656 20.9003C6.61749 20.1237 5.14398 18.8546 4.118 17.25H6.7085C7.00686 17.25 7.29301 17.1314 7.50399 16.9205C7.71497 16.7095 7.8335 16.4233 7.8335 16.125C7.8335 15.8266 7.71497 15.5404 7.50399 15.3295C7.29301 15.1185 7.00686 15 6.7085 15H0.333496V21.375C0.333496 21.6733 0.452023 21.9595 0.663001 22.1705C0.873979 22.3814 1.16013 22.5 1.4585 22.5C1.75686 22.5 2.04301 22.3814 2.25399 22.1705C2.46497 21.9595 2.5835 21.6733 2.5835 21.375V18.996C3.55067 20.3434 4.78667 21.4757 6.2135 22.3215Z" fill="black"/>
</g>
<defs>
<clipPath id="clip0_4_212">
<rect width="24" height="24" fill="white" transform="translate(0.333496)"/>
</clipPath>
</defs>
</svg>
