<svg width="32" height="33" viewBox="0 0 32 33" fill="none" xmlns="http://www.w3.org/2000/svg">
<path d="M16.7499 31.4999H7.88494C5.56744 31.4999 3.72394 30.3719 2.06944 28.7954C-1.32056 25.5659 4.24444 22.9859 6.36694 21.7229C9.71799 19.7424 13.6764 19.0523 17.4999 19.7819M26.0365 20.3669L27.0925 22.4969C27.182 22.6565 27.3042 22.7955 27.451 22.9048C27.5977 23.0141 27.7659 23.0913 27.9445 23.1314L29.8585 23.4509C31.0825 23.6564 31.3705 24.5519 30.4885 25.4354L29.0005 26.9354C28.87 27.0831 28.7743 27.2581 28.7203 27.4476C28.6663 27.637 28.6554 27.8362 28.6885 28.0304L29.1145 29.8874C29.4505 31.3574 28.6765 31.9259 27.3865 31.1579L25.5925 30.0869C25.4089 29.9917 25.2052 29.942 24.9985 29.942C24.7917 29.942 24.588 29.9917 24.4045 30.0869L22.6104 31.1579C21.3264 31.9259 20.5464 31.3514 20.8824 29.8874L21.3084 28.0304C21.3415 27.8362 21.3306 27.637 21.2766 27.4476C21.2226 27.2581 21.1269 27.0831 20.9964 26.9354L19.5084 25.4354C18.6339 24.5519 18.9159 23.6564 20.1384 23.4509L22.0524 23.1314C22.2301 23.0904 22.3971 23.0126 22.5428 22.903C22.6885 22.7935 22.8097 22.6547 22.8985 22.4954L23.9544 20.3654C24.5304 19.2104 25.4665 19.2104 26.0365 20.3654M21.2499 8.24994C21.2499 9.13636 21.0754 10.0141 20.7361 10.833C20.3969 11.652 19.8997 12.3961 19.2729 13.0229C18.6461 13.6497 17.902 14.1469 17.0831 14.4861C16.2641 14.8253 15.3864 14.9999 14.4999 14.9999C13.6135 14.9999 12.7358 14.8253 11.9168 14.4861C11.0979 14.1469 10.3538 13.6497 9.72697 13.0229C9.10018 12.3961 8.60298 11.652 8.26376 10.833C7.92454 10.0141 7.74994 9.13636 7.74994 8.24994C7.74994 6.45973 8.4611 4.74284 9.72697 3.47697C10.9928 2.2111 12.7097 1.49994 14.4999 1.49994C16.2902 1.49994 18.007 2.2111 19.2729 3.47697C20.5388 4.74284 21.2499 6.45973 21.2499 8.24994Z" stroke="black" stroke-width="2" stroke-linecap="round" stroke-linejoin="round"/>
</svg>
